<?xml version="1.0" standalone="no"?><!DOCTYPE svg PUBLIC "-//W3C//DTD SVG 1.1//EN" "http://www.w3.org/Graphics/SVG/1.1/DTD/svg11.dtd"><svg class="icon" width="16px" height="16.00px" viewBox="0 0 1024 1024" version="1.1" xmlns="http://www.w3.org/2000/svg"><path d="M128 814.933333v76.8a4.266667 4.266667 0 0 0 4.266667 4.266667h759.466666a4.266667 4.266667 0 0 0 4.266667-4.266667v-76.8a4.266667 4.266667 0 0 0-4.266667-4.266666H132.266667a4.266667 4.266667 0 0 0-4.266667 4.266666z m403.84-208.128a4.266667 4.266667 0 0 0 6.016 0l338.346667-338.346666a4.266667 4.266667 0 0 0 0-6.016L761.6 147.797333a4.266667 4.266667 0 0 0-6.016 0l-338.346667 338.346667a4.266667 4.266667 0 0 0 0 6.016l114.645334 114.645333zM303.018667 725.333333h157.653333c9.813333 0 14.677333-11.818667 7.765333-18.773333l-150.698666-148.736a11.008 11.008 0 0 0-18.773334 7.765333L298.752 721.066667a4.266667 4.266667 0 0 0 4.266667 4.266666z" /></svg>