<?xml version="1.0" standalone="no"?><!DOCTYPE svg PUBLIC "-//W3C//DTD SVG 1.1//EN" "http://www.w3.org/Graphics/SVG/1.1/DTD/svg11.dtd"><svg class="icon" width="16px" height="16.00px" viewBox="0 0 1024 1024" version="1.1" xmlns="http://www.w3.org/2000/svg"><path d="M552.128 826.56V657.92c0-11.072 9.344-20.48 20.48-20.48h168.64l-189.12 189.12z m-306.368 13.12V184.32c0-11.072 9.408-20.48 20.48-20.48h491.52c11.136 0 20.48 9.408 20.48 20.48V576H572.608c-45.056 0-81.92 36.864-81.92 81.92v202.24H266.24a20.736 20.736 0 0 1-20.48-20.48z m512-737.28H266.24c-45.056 0-81.92 36.864-81.92 81.92v655.36c0 45.056 36.864 81.92 81.92 81.92H510.08c21.76 0 42.56-8.64 57.92-24l247.744-247.68c15.36-15.36 24-36.288 24-57.984V184.32c0-44.992-36.864-81.92-81.92-81.92z" fill="#FFFFFF" /><path d="M341.312 338.368h341.376a30.72 30.72 0 0 0 0-61.44H341.312a30.72 30.72 0 1 0 0 61.44M529.024 499.712a30.72 30.72 0 1 0 0-61.44H341.312a30.72 30.72 0 1 0 0 61.44h187.712z" fill="#FFFFFF" /></svg>